SplineFontDB: 3.0
FontName: Stephanus
FullName: Stephanus
FamilyName: Stephanus
Weight: Regular
Copyright: Created by trashman with FontForge 2.0 (http://fontforge.sf.net)
UComments: "Based on the 10pt." 
Version: 0.1
ItalicAngle: 0
UnderlinePosition: -100
UnderlineWidth: 50
Ascent: 680
Descent: 320
LayerCount: 3
Layer: 0 0 "Back"  1
Layer: 1 0 "Fore"  0
Layer: 2 0 "backup"  0
NeedsXUIDChange: 1
XUID: [1021 658 797806517 11461781]
OS2Version: 0
OS2_WeightWidthSlopeOnly: 0
OS2_UseTypoMetrics: 1
CreationTime: 1288472788
ModificationTime: 1298603608
OS2TypoAscent: 0
OS2TypoAOffset: 1
OS2TypoDescent: 0
OS2TypoDOffset: 1
OS2TypoLinegap: 0
OS2WinAscent: 0
OS2WinAOffset: 1
OS2WinDescent: 0
OS2WinDOffset: 1
HheadAscent: 0
HheadAOffset: 1
HheadDescent: 0
HheadDOffset: 1
OS2Vendor: 'PfEd'
MarkAttachClasses: 1
DEI: 91125
Encoding: UnicodeBmp
UnicodeInterp: none
NameList: Adobe Glyph List
DisplaySize: -48
AntiAlias: 1
FitToEm: 1
WinInfo: 72 12 4
BeginPrivate: 9
BlueValues 23 [-11 3 366 390 665 676]
OtherBlues 11 [-299 -299]
BlueScale 8 0.039625
BlueShift 1 7
BlueFuzz 1 0
StdHW 4 [25]
StemSnapH 19 [25 29 36 44 48 61]
StdVW 4 [62]
StemSnapV 16 [56 62 66 71 80]
EndPrivate
BeginChars: 65537 84

StartChar: a
Encoding: 97 97 0
Width: 376
VWidth: 0
Flags: W
HStem: -6 47<91.5 188.452 273.5 349.348> 186 18<213.008 235> 342 38<127.124 212.082>
VStem: 32 81<50.4201 129.964> 45 73<260.236 323.475> 235 63<59.3772 186 199.044 321.673>
LayerCount: 3
Fore
SplineSet
173 342 m 0xf4
 147 342 118 328 118 303 c 0
 117 273 94 251 72 251 c 0
 50 251 45 267 45 280 c 0xec
 45 294 52 308 61 318 c 0
 88 347 152 380 204 380 c 0
 265 380 301 357 301 277 c 0
 301 187 298 104 298 85 c 0
 298 48 311 41 324 41 c 0
 340 41 346 48 353 48 c 0
 358 48 362 47 362 40 c 0
 362 23 328 -6 289 -6 c 0
 258 -6 240 16 228 44 c 1
 198 23 169 -6 114 -6 c 4
 69 -6 32 31 32 75 c 0
 32 129 73 169 235 204 c 1
 235 282 225 342 173 342 c 0xf4
235 186 m 1
 142 158 113 136 113 98 c 0xf4
 113 62 129 43 165 43 c 0
 191 43 235 63 235 92 c 2
 235 186 l 1
EndSplineSet
Layer: 2
SplineSet
173 342 m 4xf4
 147 342 118 328 118 303 c 4
 117 273 94 251 72 251 c 4
 50 251 45 267 45 280 c 4xec
 45 294 52 308 61 318 c 4
 88 347 152 380 204 380 c 4
 265 380 301 357 301 277 c 4
 301 187 298 104 298 85 c 4
 298 48 311 41 324 41 c 4
 340 41 346 48 353 48 c 4
 358 48 362 47 362 40 c 4
 362 23 328 -6 289 -6 c 4
 258 -6 240 16 228 44 c 5
 198 23 169 -6 114 -6 c 4
 64 -6 31 27 31 75 c 4
 31 136 73 168 235 203 c 5
 235 281 225 342 173 342 c 4xf4
235 187 m 5
 142 159 113 136 113 98 c 4xf4
 113 62 129 43 165 43 c 4
 191 43 235 63 235 92 c 6
 235 187 l 5
EndSplineSet
EndChar

StartChar: b
Encoding: 98 98 1
Width: 453
VWidth: 10
Flags: HW
HStem: -11 33<166.817 276.865> -2 21G<69 80> 336 38<177.825 277.47> 648 20G<120.5 126.5>
VStem: 16 116<587.188 638.285> 61 65<57.631 311.399 324 585.875> 344 80<97.8917 270.764>
LayerCount: 3
Fore
SplineSet
261 374 m 0x76
 349 374 424 298 424 197 c 0
 424 84 354 -11 227 -11 c 0xb6
 168 -11 130 17 106 17 c 0
 96 17 83 -2 69 -2 c 0
 61 -2 59 5 59 29 c 0
 59 57 60 233 60 253 c 2x76
 60 378 l 2
 60 448 60 519 58 536 c 0
 56 561 56 569 40 585 c 2
 26 599 l 2
 19 606 16 612 16 618 c 0
 16 627 25 634 42 640 c 2
 97 661 l 2
 109 666 118 668 123 668 c 0
 130 668 132 663 132 651 c 0x7a
 132 634 126 623 126 326 c 1
 177 361 206 374 261 374 c 0x76
343 177 m 0
 343 277 290 336 213 336 c 0
 162 336 126 291 126 291 c 1
 126 141 l 2
 126 46 178 22 228 22 c 0
 303 22 343 101 343 177 c 0
EndSplineSet
Layer: 2
SplineSet
261 374 m 4x73
 349 374 424 298 424 197 c 4
 424 84 354 -11 227 -11 c 4xb3
 168 -11 130 17 106 17 c 4
 96 17 88 -2 74 -2 c 4
 66 -2 62 5 62 29 c 4x73
 62 35 64 107 64 128 c 4
 64 381 59 433 56 536 c 4x75
 54 588 15 593 15 615 c 4
 15 627 21 635 43 643 c 6
 84 657 l 6
 101 663 111 665 118 665 c 4
 128 665 132 658 132 651 c 4x79
 132 634 126 621 126 324 c 5
 177 359 209 374 261 374 c 4x73
126 161 m 6
 126 56 173 22 228 22 c 4
 294 22 344 104 344 182 c 4
 344 279 284 336 213 336 c 4
 158 336 126 289 126 289 c 5
 126 161 l 6
EndSplineSet
EndChar

StartChar: c
Encoding: 99 99 2
Width: 400
VWidth: -3
Flags: HW
HStem: -5 50<176.035 314.604> 345 38<169.315 289.362>
VStem: 32 79<115.09 273.515>
LayerCount: 3
Fore
SplineSet
230 345 m 0
 150.064684646 345 112.980276805 271.958680375 112.980276805 196.035120471 c 0
 112.980276805 121.070770184 162.018474801 45 248 45 c 0
 290 45 323 65 338 75 c 0
 345 80 348 83 353 83 c 0
 356 83 368 68 368 65 c 0
 368 59 363 53 356 46 c 0
 329 19 279 -5 229 -5 c 0
 124 -5 32 66 32 180 c 0
 32 311 132 383 258 383 c 0
 295 383 373 368 373 335 c 0
 373 318 356 302 337 302 c 0
 301 302 293 345 230 345 c 0
EndSplineSet
Layer: 2
SplineSet
337 304 m 4
 301 304 293 347 230 347 c 4
 158 347 113 289 113 202 c 4
 113 116 172 46 248 46 c 4
 297 46 321 64 336 74 c 4
 340 77 345 82 353 82 c 4
 361 82 367 77 367 70 c 4
 367 58 360 49 354 43 c 4
 329 15 285 -8 221 -8 c 4
 119 -8 24 68 24 181 c 4
 24 311 131 388 258 388 c 4
 295 388 373 370 373 337 c 4
 373 320 356 304 337 304 c 4
EndSplineSet
EndChar

StartChar: d
Encoding: 100 100 3
Width: 473
VWidth: -5
Flags: HW
HStem: -7 44<155.609 269.411> 348 28<181.899 283.624> 651 20G<380.5 387>
VStem: 25 81<92.0977 265.815> 329 66<40.0088 62 68.8712 312.547 340 590.997>
LayerCount: 3
Fore
SplineSet
332 62 m 1
 292 20 244 -7 189 -7 c 0
 111 -7 25 45 25 172 c 0
 25 292 116 376 228 376 c 0
 253 376 300 361 327 340 c 1
 327 533 l 2
 327 570 324 583 307 591 c 2
 284 602 l 2
 272 608 266 614 266 620 c 0
 266 627 274 633 289 638 c 2
 371 668 l 2
 376 670 382 672 387 672 c 0
 394 672 399 669 399 657 c 0
 399 560 395 419 395 57 c 0
 395 47 396 42 404 42 c 0
 412 42 436 56 446 56 c 0
 451 56 452 52 452 47 c 2
 452 38 l 2
 452 34 450 27 445 25 c 0
 415 14 370 -6 352 -15 c 0
 348 -17 343 -20 339 -20 c 0
 335 -20 332 -17 332 -10 c 2
 332 62 l 1
228 348 m 0
 149 348 106 267 106 185 c 0
 106 97 149 37 221 37 c 0
 274 37 329 78 329 99 c 2
 329 250 l 2
 329 281 311 348 228 348 c 0
EndSplineSet
Layer: 2
SplineSet
326 56 m 1
 287 19 238 -6 193 -6 c 0
 105 -6 25 39 25 166 c 0
 25 286 116 376 228 376 c 0
 248 376 306 360 323 346 c 1
 323 440 l 2
 323 555 321 566 319 581 c 1
 305 599 265 608 265 620 c 0
 265 631 276 635 289 640 c 2
 356 665 l 2
 363 668 371 670 379 670 c 0
 392 670 405 665 405 650 c 4
 405 635 394 463 394 69 c 0
 394 51 397 45 406 45 c 0
 416 45 438 53 446 53 c 0
 451 53 452 52 452 47 c 2
 452 39 l 2
 452 35 451 30 445 27 c 2
 352 -17 l 2
 348 -19 344 -20 339 -20 c 0
 330 -20 324 -16 324 -7 c 2
 326 56 l 1
228 350 m 0
 156 350 105 266 105 184 c 0
 105 91 146 35 230 35 c 0
 279 35 327 80 327 99 c 2
 327 208 l 2
 327 273 318 350 228 350 c 0
EndSplineSet
EndChar

StartChar: e
Encoding: 101 101 4
Width: 392
VWidth: 0
Flags: HW
HStem: -7 50<161.175 293.586> 244 25<108 276.88> 358 27<164.73 258.995>
VStem: 23 75<111.179 242.082> 280 77<255.5 331.554>
LayerCount: 3
Fore
SplineSet
99 208 m 0
 99 114 148 45 232 45 c 0
 292 45 323 73 335 87 c 0
 340 92 344 99 346 99 c 0
 350 99 364 90 364 85 c 0
 364 82 361 76 359 72 c 0
 343 45 285 -7 210 -7 c 0
 88 -7 23 79 23 187 c 0
 23 295 106 385 215 385 c 0
 280 385 357 347 357 264 c 0
 357 247 345 245 332 245 c 2
 103 244 l 1
 103 244 99 220 99 208 c 0
211 358 m 0
 169 358 129 329 109 269 c 1
 251 270 l 2
 276 270 280 283 280 298 c 0
 280 326 266 358 211 358 c 0
EndSplineSet
Layer: 2
SplineSet
99 211 m 0
 99 117 148 45 233 45 c 0
 301 45 327 84 337 94 c 0
 341 98 345 100 350 100 c 0
 357 100 363 95 363 85 c 0
 363 62 307 -7 208 -7 c 0
 87 -7 23 80 23 188 c 0
 23 296 107 388 216 388 c 0
 281 388 357 348 357 265 c 0
 357 246 342 245 328 245 c 0
 303 245 105 247 103 247 c 1
 101 235 99 223 99 211 c 0
212 360 m 0
 170 360 129 332 109 272 c 1
 132 272 219 270 251 270 c 0
 276 270 280 284 280 299 c 0
 280 327 267 360 212 360 c 0
EndSplineSet
EndChar

StartChar: f
Encoding: 102 102 5
Width: 317
VWidth: 0
Flags: HW
HStem: -2 41<14.0751 73.149 155.529 260.995> 336 43<147 277.988> 628 48<164.017 262.447>
VStem: 78 69<47.0762 336 379.403 560.69>
LayerCount: 3
Fore
SplineSet
202 628 m 0
 160 628 148 579 148 527 c 2
 147 379 l 1
 268 379 l 2
 276 379 278 375 278 356 c 0
 278 337 274 336 267 336 c 2
 147 336 l 1
 147 229 l 2
 147 168 150 97 150 92 c 0
 154 50 150 42 231 39 c 0
 255 38 261 36 261 18 c 0
 261 6 254 -2 244 -2 c 0
 213 -2 186 1 137 1 c 2
 118 1 l 2
 94 1 65 -2 35 -2 c 0
 21 -2 15 1 15 17 c 0
 15 38 41 38 59 44 c 0
 77 50 77 67 78 96 c 0
 79 132 79 172 79 236 c 2
 79 336 l 1
 43 336 l 2
 29 336 24 340 24 346 c 0
 24 371 65 367 79 380 c 1
 82 487 89 675 231 675 c 0
 260 675 305 665 305 637 c 0
 305 614 290 605 275 605 c 0
 242 605 227 628 202 628 c 0
EndSplineSet
Layer: 2
SplineSet
204 628 m 4xb8
 158 628 149 579 149 528 c 6
 148 376 l 5
 247 376 260 381 268 381 c 4
 274 381 278 377 278 361 c 4
 278 339 276 336 256 336 c 6xd8
 146 336 l 5
 146 336 150 122 150 112 c 4
 153 45 158 41 231 41 c 4
 255 41 261 36 261 18 c 4
 261 6 254 -2 244 -2 c 4
 213 -2 141 1 113 1 c 4
 89 1 65 0 46 0 c 4
 32 0 14 1 14 17 c 4
 14 50 76 36 76 64 c 6
 78 320 l 6
 78 326 75 336 67 336 c 6
 42 336 l 6
 28 336 23 340 23 346 c 4
 23 359 37 366 57 371 c 4
 86 378 76 403 80 445 c 4
 85 492 88 549 116 600 c 4
 137 638 166 676 231 676 c 4
 260 676 305 665 305 637 c 4
 305 614 290 605 275 605 c 4
 243 605 226 628 204 628 c 4xb8
EndSplineSet
EndChar

StartChar: g
Encoding: 103 103 6
Width: 472
VWidth: 0
Flags: HW
HStem: -299 45<130.345 304.068> -65 73<128.777 355.927> 101 29<161.258 258.36> 310 50<352.506 459.906> 355 31<156.667 258.618>
VStem: 23 76<-223.709 -134.742> 37 73<-12.5046 52.3743 179.663 311.444> 300 66<169.073 317.274> 371 69<-179.966 -80.3258>
LayerCount: 3
Fore
SplineSet
201 100 m 0
 191 100 181 100 171 101 c 1
 147 87 106 72 106 37 c 0
 106 11 132 7 177 7 c 2
 275 7 l 2
 360 7 436 -17 436 -103 c 0
 436 -230 305 -299 200 -299 c 0
 100 -299 25 -263 25 -197 c 0
 25 -143 89 -88 125 -62 c 1
 78 -58 39 -36 39 13 c 0
 39 54 116 89 144 107 c 1
 102 122 41 154 41 240 c 0
 41 315 103 386 214 386 c 0
 282 386 322 352 322 352 c 1
 322 352 389 360 447 360 c 0
 456 360 459 355 459 337 c 0
 459 313 458 310 447 310 c 0
 443 310 416 316 346 318 c 1
 346 318 368 284 368 242 c 0
 368 144 287 100 201 100 c 0
218 -254 m 0
 299 -254 373 -206 373 -128 c 0
 373 -84 334 -63 268 -63 c 2
 151 -63 l 1
 120 -91 96 -117 96 -170 c 0
 96 -227 142 -254 218 -254 c 0
299 241 m 0
 299 305 275 356 205 356 c 0
 144 356 112 308 112 241 c 0
 112 188 135 130 204 130 c 0
 268 130 299 174 299 241 c 0
EndSplineSet
Layer: 2
SplineSet
206 101 m 4xf380
 194 101 183 102 171 103 c 5
 147 89 110 66 110 36 c 4xf380
 110 10 132 8 177 8 c 4
 214 8 273 10 295 10 c 4
 378 10 440 -13 440 -92 c 4
 440 -231 307 -299 200 -299 c 4
 99 -299 23 -267 23 -195 c 4xf580
 23 -141 76 -99 114 -66 c 5
 85 -59 37 -36 37 13 c 4
 37 44 73 64 104 84 c 4
 119 93 130 100 130 108 c 4
 130 113 127 117 119 121 c 4
 90 134 39 182 39 247 c 4
 39 318 104 386 214 386 c 4
 288 386 320 355 325 355 c 4xeb80
 349 355 424 360 447 360 c 4
 456 360 460 353 460 339 c 4
 460 312 458 310 437 310 c 4
 423 310 383 316 351 318 c 5
 351 318 366 284 366 253 c 4
 366 151 294 101 206 101 c 4xf380
99 -170 m 4xe580
 99 -237 161 -254 218 -254 c 4
 285 -254 371 -217 371 -120 c 4
 371 -86 342 -66 301 -66 c 4
 256 -66 196 -65 149 -65 c 5
 127 -86 99 -113 99 -170 c 4xe580
112 249 m 4
 112 193 123 130 204 130 c 4
 270 130 300 172 300 239 c 4
 300 302 274 355 206 355 c 4xe980
 152 355 112 307 112 249 c 4
EndSplineSet
EndChar

StartChar: h
Encoding: 104 104 7
Width: 511
VWidth: 0
Flags: HW
HStem: -2 39<15.1482 73.8608 154.024 233.913> 337 43<221.862 329.727> 648 20G<117 129.5>
VStem: 78 69<42.9531 300.32 312 595.452> 358 71<41.5904 308.797>
LayerCount: 3
Fore
SplineSet
149 312 m 1
 182 338 231 380 312 380 c 0
 392 380 423 326 424 249 c 0
 425 186 425 122 427 61 c 0
 428 26 489 48 489 20 c 0
 489 8 480 -2 468 -2 c 0
 447 -2 423 1 401 1 c 2
 378 1 l 2
 346 1 321 -2 315 -2 c 0
 303 -2 297 4 297 16 c 0
 297 53 353 15 356 70 c 0
 358 102 358 135 358 185 c 0
 358 260 352 335 273 335 c 0
 205 335 149 282 149 282 c 1
 148 221 148 156 148 96 c 0
 148 60 155 40 188 37 c 0
 204 35 234 38 234 19 c 0
 234 0 228 -2 213 -2 c 0
 201 -2 163 1 132 1 c 2
 112 1 l 2
 87 1 41 -2 34 -2 c 0
 25 -2 17 0 17 15 c 0
 17 30 20 33 46 36 c 0
 76 39 80 59 80 85 c 2
 80 368 l 2
 80 507 79 446 78 552 c 0
 78 578 72 590 49 599 c 2
 36 604 l 2
 25 608 20 614 20 619 c 0
 20 624 25 628 34 632 c 2
 128 669 l 2
 135 671 139 673 143 673 c 0
 149 673 152 668 152 655 c 0
 152 640 149 585 149 312 c 1
EndSplineSet
Layer: 2
SplineSet
149 312 m 5
 180 332 234 380 303 380 c 4
 384 380 425 339 426 259 c 4
 427 196 427 124 429 63 c 4
 430 28 491 50 491 20 c 4
 491 7 480 2 465 2 c 4
 404 2 325 0 315 0 c 4
 303 0 297 4 297 16 c 4
 297 58 353 17 356 72 c 4
 358 104 358 145 358 195 c 4
 358 270 352 337 273 337 c 4
 205 337 148 285 148 285 c 5
 147 224 147 156 147 96 c 4
 147 60 155 41 188 38 c 4
 204 36 234 36 234 19 c 4
 234 4 223 -2 208 -2 c 4
 193 -2 146 1 110 1 c 4
 85 1 44 -2 37 -2 c 4
 28 -2 15 0 15 15 c 4
 15 29 24 34 44 37 c 4
 74 42 78 59 78 85 c 6
 78 134 l 6
 78 273 77 416 76 552 c 4
 76 578 68 594 47 599 c 6
 34 602 l 6
 25 604 21 607 21 619 c 4
 21 625 26 632 32 634 c 4
 58 644 110 668 124 668 c 4
 135 668 152 661 152 650 c 4
 152 635 149 585 149 312 c 5
EndSplineSet
EndChar

StartChar: i
Encoding: 105 105 8
Width: 237
VWidth: 0
Flags: W
HStem: -3 41<151.886 210.044> 370 20G<139.5 144.5> 514 99<76.1615 157.246>
VStem: 66 100<522.779 602.455> 79 69<42.3086 313.156>
LayerCount: 3
Fore
SplineSet
115 381 m 0xe8
 122 384 137 390 142 390 c 0
 147 390 151 388 151 371 c 0
 151 358 148 178 148 102 c 0
 148 56 149 50 179 38 c 0
 194 32 211 27 211 12 c 0
 211 -2 195 -3 184 -3 c 0
 164 -3 140 1 111 1 c 0
 88 1 66 -2 45 -2 c 0
 30 -2 20 5 20 17 c 0
 20 47 68 31 73 57 c 0
 78 83 79 106 79 142 c 2
 79 223 l 2
 79 262 79 300 71 305 c 2
 41 323 l 2
 34 327 30 329 30 335 c 0
 30 349 49 353 115 381 c 0xe8
66 563 m 0xf0
 66 591 92 613 120 613 c 0
 148 613 166 591 166 563 c 0
 166 535 143 514 115 514 c 0
 87 514 66 535 66 563 c 0xf0
EndSplineSet
EndChar

StartChar: j
Encoding: 106 106 9
Width: 235
VWidth: 0
Flags: W
HStem: -255 86<-31.2808 61.125> 363 20G<146 151.5> 507 96<81.6188 160.808>
VStem: 73 95<514.146 593.942> 84 75<-134.734 304.076>
LayerCount: 3
Fore
SplineSet
73 554 m 0xf0
 73 584 98 603 125 603 c 0
 155 603 168 581 168 554 c 0
 168 527 148 507 120 507 c 0
 89 507 73 527 73 554 c 0xf0
105 -185 m 2
 77 -225 51 -255 -0 -255 c 0
 -22 -255 -36 -241 -36 -212 c 0
 -36 -169 5 -169 37 -169 c 0
 81 -169 84 -16 84 38 c 2
 84 250 l 2
 84 290 73 295 61 305 c 0
 52 313 39 314 39 328 c 0
 39 336 48 341 56 343 c 0
 100 355 124 371 137 379 c 0
 140 381 144 383 148 383 c 0
 155 383 162 379 162 371 c 0
 162 357 157 290 157 241 c 0
 157 194 159 38 159 22 c 0xe8
 159 -52 154 -112 129 -150 c 2
 105 -185 l 2
EndSplineSet
Layer: 2
SplineSet
73 554 m 4xe0
 73 584 98 603 125 603 c 4
 155 603 168 581 168 554 c 4
 168 527 148 507 120 507 c 4
 89 507 73 527 73 554 c 4xe0
105 -185 m 6
 77 -226 52 -255 4 -255 c 4
 -20 -255 -36 -243 -36 -212 c 4
 -36 -169 5 -169 37 -169 c 4
 81 -169 84 -16 84 38 c 6
 84 250 l 6
 84 290 73 295 61 305 c 4
 52 313 39 314 39 328 c 4
 39 336 48 340 56 342 c 4
 100 354 124 371 137 379 c 4
 140 381 144 383 148 383 c 4
 155 383 163 378 163 370 c 4
 163 356 159 301 159 209 c 4
 159 162 160 38 160 22 c 4
 160 -74 154 -112 129 -150 c 6
 105 -185 l 6
EndSplineSet
EndChar

StartChar: k
Encoding: 107 107 10
Width: 464
VWidth: 0
Flags: W
HStem: -0 35<136.555 193.988 397.994 463.991> 337 32<353.329 404.994> 649 20G<114 122>
VStem: 65 67<74.2275 140 173 598.547>
LayerCount: 3
Fore
SplineSet
118 669 m 0
 126 669 135 661 135 655 c 0
 135 646 132 570 132 298 c 2
 132 173 l 1
 172 204 227 248 252 277 c 0
 271 299 276 313 276 320 c 0
 276 340 250 342 250 356 c 0
 250 365 256 369 264 369 c 0
 273 369 306 366 321 366 c 0
 350 366 366 369 380 369 c 0
 397 369 405 364 405 353 c 0
 405 342 400 340 390 337 c 0
 370 331 360 327 343 314 c 0
 310 289 267 254 235 221 c 1
 296 154 329 116 368 75 c 0
 400 42 435 39 444 37 c 0
 452 35 464 32 464 18 c 0
 464 2 455 -1 437 -1 c 0
 420 -1 394 2 358 2 c 0
 322 2 297 0 282 0 c 0
 271 0 262 5 262 16 c 0
 262 28 269 34 280 38 c 0
 288 41 291 48 291 54 c 0
 291 66 212 150 184 181 c 1
 132 140 l 1
 132 84 l 2
 132 49 138 41 168 35 c 0
 183 32 194 28 194 17 c 0
 194 1 178 0 159 -0 c 0
 145 0 126 3 94 3 c 0
 75 3 43 1 28 1 c 0
 17 1 4 4 4 18 c 0
 4 44 56 28 59 67 c 0
 65 145 65 193 65 307 c 0
 65 375 65 578 60 585 c 0
 56 591 53 595 27 606 c 0
 14 611 9 616 9 622 c 0
 9 630 17 635 26 638 c 0
 72 654 110 669 118 669 c 0
EndSplineSet
EndChar

StartChar: l
Encoding: 108 108 11
Width: 234
VWidth: -2
Flags: W
HStem: 0 37<22.2406 74.161 157.075 205.89> 648 20G<124 139.5>
VStem: 82 69<37.6407 603.607>
LayerCount: 3
Fore
SplineSet
174 37 m 0
 193 31 206 34 206 21 c 0
 206 8 200 0 188 0 c 0
 177 0 160 1 118 1 c 0
 72 1 53 -1 38 -1 c 0
 27 -1 22 4 22 15 c 0
 22 30 31 32 53 34 c 0
 72 36 82 68 82 102 c 0
 82 194 81 454 80 524 c 0
 79 576 76 597 48 612 c 0
 40 616 32 621 32 629 c 0
 32 637 35 642 44 644 c 0
 104 659 112 668 136 668 c 0
 143 668 154 656 154 651 c 2
 154 651 151 240 151 106 c 0
 151 76 153 43 174 37 c 0
EndSplineSet
EndChar

StartChar: m
Encoding: 109 109 12
Width: 754
VWidth: 0
Flags: W
HStem: -4 40<157.342 219.991 272.252 328.99 416.025 473.934 528.555 583.403> -3 46<17.4857 67.1641 669.836 729.299> 338 48<212.801 309.696 478.043 575.269>
VStem: 74 75<47.1467 311.094> 338 71<44.0677 305.375> 596 72<42.974 317.741>
LayerCount: 3
Fore
SplineSet
45 -3 m 0x7c
 25 -3 17 5 17 16 c 0
 17 33 30 35 46 43 c 0x7c
 74 57 74 81 74 150 c 2
 74 223 l 2
 74 247 74 270 73 278 c 0
 68 328 38 319 38 334 c 0
 38 340 44 344 52 348 c 0
 77 362 106 381 122 391 c 0
 132 397 141 403 147 403 c 0
 157 403 158 395 158 386 c 0
 158 381 154 348 152 325 c 1
 209 371 259 386 293 386 c 0
 368 386 390 331 398 314 c 1
 434 341 494 385 562 385 c 0
 656 385 668 328 668 271 c 2
 668 92 l 2
 668 66 669 50 691 40 c 0
 702 35 730 31 730 18 c 0
 730 -1 705 -1 695 -1 c 0
 683 -1 650 2 621 2 c 0
 596 2 563 -2 548 -2 c 0
 540 -2 528 -1 528 11 c 0
 528 32 550 30 564 36 c 0
 588 47 596 79 596 144 c 2
 596 220 l 2
 596 296 584 338 518 338 c 0
 473 338 440 315 414 294 c 0
 407 289 406 287 406 280 c 0
 406 273 409 256 409 226 c 2
 409 93 l 2
 409 55 423 39 445 36 c 0
 464 33 474 33 474 14 c 0
 474 -3 452 -4 438 -4 c 0
 424 -4 410 -1 366 -1 c 0
 323 -1 307 -4 292 -4 c 0xbc
 276 -4 271 0 271 11 c 0
 271 21 284 29 292 33 c 0
 331 50 338 43 338 145 c 2
 338 227 l 2
 338 288 322 338 244 338 c 0
 215 338 185 325 166 307 c 0
 153 294 148 295 148 267 c 2
 149 106 l 2
 149 33 177 39 194 35 c 0
 207 32 220 30 220 16 c 0
 220 5 215 -2 200 -2 c 0
 179 -2 144 2 110 2 c 0
 88 2 54 -3 45 -3 c 0x7c
EndSplineSet
EndChar

StartChar: n
Encoding: 110 110 13
Width: 507
VWidth: 0
Flags: W
HStem: -3 41<151.347 218.006 287.066 346.464 426.127 478.718> 335 44<217.879 325.689>
VStem: 76 71<45.5671 299.237> 351 69<42.4473 307.389>
LayerCount: 3
Fore
SplineSet
266 335 m 0
 220 335 176 310 147 281 c 1
 147 84 l 2
 147 62 155 41 172 38 c 0
 197 34 219 29 219 12 c 0
 219 2 208 -3 192 -3 c 0
 177 -3 140 3 103 3 c 0
 89 3 48 0 41 0 c 0
 33 0 21 3 21 17 c 0
 21 32 43 38 59 48 c 0
 70 55 76 62 76 92 c 2
 76 274 l 2
 76 301 68 305 49 318 c 0
 43 322 39 329 39 335 c 0
 39 339 41 342 45 344 c 0
 72 357 93 365 135 395 c 0
 138 397 146 403 151 403 c 0
 154 403 157 400 157 394 c 0
 157 383 151 326 151 314 c 1
 183 339 240 379 304 379 c 0
 403 379 420 331 420 234 c 0
 420 142 421 123 421 117 c 0
 421 82 421 49 442 37 c 0
 456 29 479 30 479 15 c 0
 479 2 471 -2 459 -2 c 0
 444 -2 415 2 381 2 c 0
 357 2 324 -3 310 -3 c 0
 296 -3 286 0 286 9 c 0
 286 24 292 28 310 34 c 0
 333 42 348 51 348 66 c 0
 348 105 351 149 351 190 c 0
 351 267 348 335 266 335 c 0
EndSplineSet
EndChar

StartChar: o
Encoding: 111 111 14
Width: 440
VWidth: 0
Flags: HW
HStem: -9 35<165.429 271.484> 347 32<168.684 269.224>
VStem: 30 76<88.6178 276.293> 327 74<85.8978 288.869>
LayerCount: 3
Fore
SplineSet
219 348 m 0
 146 348 106 268 106 188 c 0
 106 91 154 25 217 25 c 0
 296 25 327 98 327 194 c 0
 327 273 293 348 219 348 c 0
30 174 m 0
 30 287 98 379 226 379 c 0
 346 379 401 289 401 187 c 0
 401 71 332 -8 212 -8 c 0
 97 -8 30 70 30 174 c 0
EndSplineSet
Layer: 2
SplineSet
219 347 m 4
 146 347 106 268 106 188 c 4
 106 91 154 26 217 26 c 4
 296 26 327 98 327 194 c 4
 327 273 293 347 219 347 c 4
30 174 m 4
 30 287 95 379 226 379 c 4
 349 379 401 289 401 187 c 4
 401 71 335 -9 212 -9 c 4
 93 -9 30 70 30 174 c 4
EndSplineSet
EndChar

StartChar: p
Encoding: 112 112 15
Width: 463
VWidth: 0
Flags: W
HStem: -303 46<7.1101 64.499 150.685 231.569> -5 35<184.675 309.679> 342 39<200.476 309.488>
VStem: 77 68<-246.712 17 66.5419 302.696> 372 71<108.244 275.937>
LayerCount: 3
Fore
SplineSet
443 202 m 0
 443 97 365 -5 248 -5 c 0
 210 -5 169 4 147 17 c 1
 144 -32 144 -95 144 -151 c 2
 144 -176 l 2
 144 -220 148 -257 178 -257 c 0
 194 -257 232 -258 232 -283 c 0
 232 -293 227 -303 190 -303 c 0
 184 -303 141 -300 108 -300 c 0
 78 -300 41 -301 29 -301 c 0
 14 -301 7 -295 7 -281 c 0
 7 -261 24 -261 39 -256 c 0
 64 -248 72 -225 73 -201 c 0
 74 -156 77 154 77 226 c 0
 77 265 75 293 41 315 c 0
 37 317 35 320 35 323 c 0
 35 327 39 332 45 335 c 0
 105 370 126 387 134 387 c 0
 137 387 144 385 144 378 c 0
 144 372 139 326 139 316 c 1
 158 337 206 381 282 381 c 0
 366 381 443 331 443 202 c 0
250 342 m 0
 182 342 145 308 145 272 c 2
 145 128 l 2
 145 100 165 30 239 30 c 0
 336 30 372 100 372 188 c 0
 372 271 321 342 250 342 c 0
EndSplineSet
EndChar

StartChar: q
Encoding: 113 113 16
Width: 485
VWidth: 0
Flags: W
HStem: -305 41<256.071 322.671 409.903 474.945> 26 2<246 326> 341 36<158.075 279.484>
VStem: 23 74<103.225 265.557> 326 76<-255.772 26 45.6901 301.742>
LayerCount: 3
Fore
SplineSet
326 77 m 1
 326 245 l 2
 326 305 269 341 219 341 c 0
 138 341 97 270 97 184 c 0
 97 97 162 28 246 28 c 0
 316 28 326 77 326 77 c 1
198 -17 m 0
 97 -17 23 69 23 173 c 0
 23 286 107 377 237 377 c 0
 295 377 327 355 337 355 c 0
 346 355 350 363 369 381 c 0
 376 387 382 392 388 392 c 0
 395 392 402 386 402 369 c 0
 402 347 398 279 398 254 c 0
 398 104 402 -65 402 -215 c 0
 402 -217 403 -257 435 -259 c 0
 456 -260 475 -264 475 -282 c 0
 475 -301 467 -305 449 -305 c 0
 422 -305 394 -302 364 -302 c 0
 341 -302 296 -305 279 -305 c 0
 267 -305 256 -296 256 -286 c 0
 256 -269 270 -265 299 -264 c 0
 308 -264 316 -261 323 -257 c 1
 326 -231 326 -193 326 -152 c 2
 326 26 l 1
 325 26 256 -17 198 -17 c 0
EndSplineSet
EndChar

StartChar: r
Encoding: 114 114 17
Width: 330
VWidth: 0
Flags: HW
HStem: -3 35<153.145 227.976> 307 66<205.947 300.926>
VStem: 78 67<38.3536 285.497 292.955 301.997>
LayerCount: 3
Fore
SplineSet
285 295 m 0
 249 295 242 310 210 310 c 0
 189 310 182 300 169 288 c 2
 158 277 l 2
 148 266 145 265 145 248 c 0
 145 199 145 122 146 78 c 0
 147 29 181 35 214 33 c 0
 227 32 228 27 228 18 c 0
 228 10 228 -2 213 -2 c 0
 189 -2 162 1 130 1 c 2
 110 1 l 6
 88 1 62 -2 42 -2 c 4
 34 -2 28 3 28 15 c 0
 28 27 36 31 50 34 c 0
 72 38 72 48 76 64 c 0
 77 69 78 98 78 130 c 2
 78 279 l 2
 78 288 74 293 66 297 c 2
 41 310 l 2
 31 315 24 322 36 330 c 2
 126 388 l 2
 131 391 136 394 140 394 c 0
 144 394 146 391 146 384 c 0
 146 378 141 327 139 302 c 0
 139 296 143 293 148 298 c 0
 181 332 213 374 270 374 c 0
 300 374 321 359 321 340 c 0
 321 312 301 295 285 295 c 0
EndSplineSet
Layer: 2
SplineSet
110 1 m 4
 91 1 60 -2 52 -2 c 4
 39 -2 28 3 28 15 c 4
 28 27 36 30 50 34 c 4
 66 39 75 51 76 64 c 4
 78 102 78 147 78 192 c 6
 78 279 l 6
 78 291 72 293 56 303 c 4
 48 308 30 311 30 321 c 4
 30 324 32 327 36 330 c 6
 120 385 l 6
 125 388 130 390 135 390 c 4
 141 390 146 387 146 379 c 4
 146 371 141 311 141 296 c 4
 141 295 144 293 145 294 c 6
 168 316 l 6
 185 333 216 374 267 374 c 4
 300 374 321 361 321 341 c 4
 321 310 304 298 285 298 c 4
 250 298 237 308 213 308 c 4
 189 308 179 299 168 288 c 4
 151 272 145 255 145 230 c 4
 145 182 145 126 146 78 c 4
 147 29 181 37 214 33 c 4
 227 31 228 26 228 13 c 4
 228 5 220 -2 208 -2 c 4
 200 -2 132 1 110 1 c 4
EndSplineSet
EndChar

StartChar: s
Encoding: 115 115 18
Width: 307
VWidth: -5
Flags: W
HStem: -9 34<85.9883 194.024> 1 88<33.1106 68.374> 292 80<227.218 261.789> 348 31<133.059 208.194>
VStem: 48 75<256.274 337.987> 211 70<43.1569 128.106>
LayerCount: 3
Fore
SplineSet
27 65 m 0x4c
 27 84 36 89 45 89 c 0x4c
 57 89 66 76 77 52 c 0
 84 37 112 25 150 25 c 0
 181 25 211 42 211 83 c 0
 211 167 48 168 48 277 c 0
 48 351 115 379 190 379 c 0x9c
 208 379 228 377 246 372 c 0
 261 368 264 346 264 326 c 2
 264 315 l 2
 264 294 260 292 251 292 c 0x2c
 247 292 244 293 238 300 c 0
 228 311 204 348 174 348 c 0
 141 348 123 332 123 301 c 0
 123 224 281 206 281 106 c 0
 281 40 222 -9 131 -9 c 0x9c
 120 -9 79 -9 52 1 c 0
 31 8 27 41 27 65 c 0x4c
EndSplineSet
EndChar

StartChar: t
Encoding: 116 116 19
Width: 310
VWidth: -2
Flags: HWO
HStem: -12 50<147.403 254.701> 325 40<136 281.999>
VStem: 61 69<54.7419 325>
LayerCount: 3
Fore
SplineSet
64 327 m 1
 27 327 l 2
 21 327 16 328 16 333 c 2
 16 338 l 2
 16 342 21 348 29 355 c 2
 111 431 l 2
 116 436 122 440 127 440 c 0
 132 440 136 436 136 424 c 2
 136 365 l 1
 270 365 l 2
 282 365 282 363 282 344 c 0
 282 326 280 325 271 325 c 2
 132 325 l 1
 131 258 131 190 131 125 c 0
 131 67 151 37 202 37 c 0
 219 37 244 43 261 55 c 0
 266 59 271 62 275 62 c 0
 277 62 289 50 289 44 c 0
 289 37 283 33 276 27 c 0
 246 2 209 -11 169 -11 c 0
 119 -11 62 17 62 83 c 0
 62 159 64 315 64 327 c 1
EndSplineSet
Layer: 2
SplineSet
64 314 m 0
 64 326 54 327 44 327 c 6
 27 327 l 2
 21 327 16 328 16 333 c 2
 16 338 l 2
 16 342 21 348 29 355 c 2
 111 431 l 2
 116 436 122 440 127 440 c 0
 132 440 136 436 136 424 c 2
 136 365 l 1
 270 365 l 2
 282 365 282 363 282 344 c 0
 282 326 280 325 271 325 c 2
 132 325 l 1
 131 258 131 192 130 125 c 0
 130 67 151 38 202 38 c 0
 219 38 244 43 258 55 c 0
 263 59 268 62 272 62 c 0
 279 62 288 58 288 46 c 0
 288 32 272 18 251 8 c 0
 225 -5 194 -12 166 -12 c 0
 110 -12 61 17 61 83 c 0
 61 160 64 302 64 314 c 0
EndSplineSet
EndChar

StartChar: u
Encoding: 117 117 20
Width: 284
VWidth: 0
Flags: W
HStem: 134 94<102.394 181.606>
VStem: 95 94<141.394 220.606>
LayerCount: 3
Fore
SplineSet
95 181 m 0
 95 207 116 228 142 228 c 0
 168 228 189 207 189 181 c 0
 189 155 168 134 142 134 c 0
 116 134 95 155 95 181 c 0
EndSplineSet
Layer: 2
SplineSet
171 -9 m 4x82
 111 -9 61 19 61 101 c 4x8a
 61 170 67 242 67 310 c 4
 67 325 31 327 22 330 c 4xa4
 18 331 17 335 17 338 c 6
 17 343 l 6
 17 347 19 349 24 350 c 4
 92 357 118 364 123 364 c 4
 128 364 134 362 134 350 c 4x14
 131 273 126 188 126 116 c 4
 126 36 170 33 202 33 c 4
 243 33 286 59 302 76 c 4
 311 85 312 91 312 94 c 4x9a
 312 149 317 232 317 287 c 4
 317 308 310 314 298 318 c 4
 289 321 275 327 262 330 c 4xa1
 259 331 256 330 256 337 c 6
 256 344 l 6
 256 348 256 351 268 352 c 4
 326 357 366 370 373 370 c 4x12
 378 370 381 365 381 358 c 4x11
 381 344 373 69 373 66 c 4
 373 51 381 47 391 47 c 4
 398 47 407 49 414 50 c 4
 420 51 423 50 423 42 c 6
 423 34 l 6
 423 28 421 25 409 22 c 4x52
 368 13 348 1 326 -9 c 4
 325 -10 321 -12 318 -12 c 4
 313 -12 309 -10 309 -6 c 4
 310 16 312 40 312 68 c 5
 294 45 236 -9 171 -9 c 4x82
EndSplineSet
EndChar

StartChar: v
Encoding: 118 118 21
Width: 423
VWidth: 0
Flags: W
HStem: 134 94<102.394 181.606>
VStem: 95 94<141.394 220.606>
LayerCount: 3
Fore
SplineSet
95 181 m 4
 95 207 116 228 142 228 c 4
 168 228 189 207 189 181 c 4
 189 155 168 134 142 134 c 4
 116 134 95 155 95 181 c 4
EndSplineSet
Layer: 2
SplineSet
29 322 m 4
 19 325 13 330 13 338 c 4
 13 348 22 351 33 351 c 4
 41 351 58 349 96 349 c 4
 130 349 151 352 160 352 c 4
 170 352 178 349 178 338 c 4
 178 332 175 329 171 327 c 4
 159 321 141 317 141 300 c 4
 141 297 142 293 144 288 c 4
 159 247 195 162 215 118 c 4
 221 105 225 98 229 98 c 4
 233 98 238 105 244 118 c 4
 265 161 301 243 315 286 c 4
 318 295 320 301 320 306 c 4
 320 315 314 319 295 322 c 4
 284 324 275 327 275 337 c 4
 275 348 281 351 292 351 c 4
 301 351 324 349 346 349 c 4
 368 349 390 351 398 351 c 4
 409 351 412 344 412 340 c 4
 412 331 407 328 397 326 c 4
 381 322 367 310 354 282 c 4
 317 201 260 80 226 -2 c 4
 224 -7 222 -8 213 -8 c 6
 202 -8 l 6
 194 -8 186 -7 184 0 c 4
 147 110 103 207 74 274 c 4
 57 313 50 316 29 322 c 4
EndSplineSet
EndChar

StartChar: w
Encoding: 119 119 22
Width: 631
VWidth: 0
Flags: W
HStem: 134 94<102.394 181.606>
VStem: 95 94<141.394 220.606>
LayerCount: 3
Fore
SplineSet
95 181 m 4
 95 207 116 228 142 228 c 4
 168 228 189 207 189 181 c 4
 189 155 168 134 142 134 c 4
 116 134 95 155 95 181 c 4
EndSplineSet
Layer: 2
SplineSet
76 306 m 4
 68 325 47 325 34 327 c 4
 24 329 18 333 18 341 c 4
 18 351 27 354 38 354 c 4
 46 354 58 352 96 352 c 4
 137 352 152 354 161 354 c 4
 176 354 183 352 183 341 c 4
 183 331 174 332 162 329 c 4
 149 326 145 320 145 312 c 4
 145 306 147 299 150 291 c 4
 168 234 225 81 228 81 c 4
 231 81 280 183 311 247 c 4
 313 252 314 256 314 260 c 4
 314 266 313 272 310 279 c 4
 298 307 298 326 254 329 c 4
 244 330 238 335 238 343 c 4
 238 353 247 354 258 354 c 4
 266 354 292 352 327 352 c 4
 370 352 381 354 398 354 c 4
 409 354 412 348 412 344 c 4
 412 333 406 331 396 330 c 4
 369 327 368 318 368 307 c 4
 368 284 440 84 446 84 c 4
 451 84 512 222 538 286 c 4
 541 293 543 301 543 308 c 4
 543 318 539 326 525 328 c 4
 513 330 504 331 504 341 c 4
 504 352 513 354 524 354 c 4
 533 354 542 352 566 352 c 4
 588 352 602 354 610 354 c 4
 621 354 624 349 624 342 c 4
 624 335 614 331 606 329 c 4
 581 322 547 233 507 146 c 4
 484 97 458 42 443 -1 c 4
 441 -8 437 -12 428 -12 c 4
 420 -12 414 -9 412 -2 c 4
 411 0 334 228 329 228 c 4
 326 228 291 155 261 89 c 4
 242 48 234 12 228 -2 c 4
 225 -9 219 -12 210 -12 c 4
 202 -12 197 -10 194 -3 c 4
 169 65 96 261 76 306 c 4
EndSplineSet
EndChar

StartChar: x
Encoding: 120 120 23
Width: 423
VWidth: 0
Flags: W
HStem: 134 94<102.394 181.606>
VStem: 95 94<141.394 220.606>
LayerCount: 3
Fore
SplineSet
95 181 m 4
 95 207 116 228 142 228 c 4
 168 228 189 207 189 181 c 4
 189 155 168 134 142 134 c 4
 116 134 95 155 95 181 c 4
EndSplineSet
Layer: 2
SplineSet
231 11 m 4
 231 31 269 17 269 40 c 4
 269 53 225 117 207 138 c 4
 199 148 200 150 193 142 c 4
 172 118 116 55 116 41 c 4
 116 32 122 30 134 26 c 4
 146 22 152 19 152 11 c 4
 152 0 143 -2 132 -2 c 4
 123 -2 91 0 77 0 c 4
 61 0 31 -2 23 -2 c 4
 12 -2 6 0 6 11 c 4
 6 20 13 24 25 26 c 4
 58 32 141 117 180 163 c 4
 187 171 184 170 178 178 c 4
 119 257 88 296 63 314 c 4
 50 324 42 324 29 327 c 4
 19 329 11 333 11 341 c 4
 11 351 20 354 31 354 c 4
 39 354 71 352 106 352 c 4
 147 352 164 354 173 354 c 4
 188 354 192 352 192 343 c 4
 192 334 186 332 174 329 c 4
 165 327 155 321 155 311 c 4
 155 308 156 305 158 302 c 4
 169 282 203 234 215 218 c 4
 222 209 223 214 227 218 c 4
 248 239 292 293 292 310 c 4
 292 319 287 324 275 328 c 4
 263 332 255 331 255 341 c 4
 255 352 266 354 277 354 c 4
 286 354 296 352 325 352 c 4
 354 352 371 354 379 354 c 4
 394 354 394 346 394 342 c 4
 394 330 376 326 365 324 c 4
 341 320 297 262 241 198 c 4
 234 190 235 189 241 181 c 4
 297 107 332 64 353 44 c 4
 365 32 375 29 385 26 c 4
 395 23 401 17 401 11 c 4
 401 1 394 -2 381 -2 c 4
 373 -2 331 0 315 0 c 4
 301 0 262 -2 253 -2 c 4
 238 -2 231 0 231 11 c 4
EndSplineSet
EndChar

StartChar: y
Encoding: 121 121 24
Width: 465
VWidth: 0
Flags: W
HStem: 134 94<102.394 181.606>
VStem: 95 94<141.394 220.606>
LayerCount: 3
Fore
SplineSet
95 181 m 4
 95 207 116 228 142 228 c 4
 168 228 189 207 189 181 c 4
 189 155 168 134 142 134 c 4
 116 134 95 155 95 181 c 4
EndSplineSet
Layer: 2
SplineSet
37 332 m 4xb0
 27 333 21 335 21 343 c 4
 21 353 27 354 38 354 c 4
 46 354 66 352 106 352 c 4
 149 352 169 354 178 354 c 4
 193 354 200 354 200 343 c 4
 200 333 191 331 179 330 c 4
 154 327 151 324 151 312 c 4
 151 299 241 51 247 51 c 4
 252 51 358 302 358 312 c 4
 358 321 352 326 340 330 c 4
 329 334 324 337 324 344 c 4
 324 349 328 354 342 354 c 4xb0
 351 354 365 352 384 352 c 4
 406 352 423 354 431 354 c 4
 442 354 448 351 448 343 c 4
 448 326 433 328 423 325 c 4xd0
 410 321 404 318 390 289 c 6
 323 147 l 6
 291 79 259 10 225 -56 c 4
 179 -146 127 -242 96 -286 c 4
 87 -298 71 -306 57 -306 c 4
 31 -306 17 -286 17 -267 c 4
 17 -249 29 -233 53 -233 c 4
 66 -233 74 -238 78 -238 c 4
 88 -238 96 -228 103 -217 c 4
 136 -158 209 -22 209 -15 c 4
 209 -7 118 208 85 288 c 4
 72 320 68 328 37 332 c 4xb0
EndSplineSet
EndChar

StartChar: z
Encoding: 122 122 25
Width: 390
VWidth: 0
Flags: W
HStem: 134 94<102.394 181.606>
VStem: 95 94<141.394 220.606>
LayerCount: 3
Fore
SplineSet
95 181 m 4
 95 207 116 228 142 228 c 4
 168 228 189 207 189 181 c 4
 189 155 168 134 142 134 c 4
 116 134 95 155 95 181 c 4
EndSplineSet
Layer: 2
SplineSet
76 354 m 6
 347 354 l 6
 355 354 358 350 358 346 c 4
 358 335 352 328 349 324 c 4
 305 270 112 46 112 33 c 4
 112 28 124 28 134 28 c 4
 242 28 264 32 285 37 c 4
 305 42 312 52 330 77 c 4
 333 82 337 90 343 90 c 4
 354 90 355 87 355 83 c 4
 355 69 350 48 347 7 c 4
 347 5 346 0 333 0 c 6
 26 0 l 6
 20 0 18 5 18 10 c 4
 18 13 21 16 22 18 c 4
 69 75 275 323 275 328 c 4
 275 330 265 330 253 330 c 6
 202 330 l 6
 173 330 145 328 119 320 c 4
 111 318 99 309 93 303 c 4
 79 289 74 270 64 270 c 4
 55 270 53 275 53 285 c 4
 53 290 57 323 59 343 c 4
 60 351 70 354 76 354 c 6
EndSplineSet
EndChar

StartChar: H
Encoding: 72 72 33
Width: 785
VWidth: 0
Flags: W
HStem: -3 34<37.0925 67 220 255.977 520.092 577.734 682.355 730.967> 294 44<184.004 596.757> 608 33<44.0476 80 198.015 258.885 530.048 589.75 687.689 735.884>
VStem: 101 82<38.5325 294 338 555.846> 108 76<133.247 294 338 598.625> 597 78<45.1378 293.972 338 600.248>
LayerCount: 3
Fore
SplineSet
238 32 m 2xf4
 255 30 256 21 256 13 c 0
 256 3 248 -3 239 -3 c 0
 225 -3 186 0 149 0 c 0
 110 0 70 -3 56 -3 c 0
 45 -3 37 2 37 12 c 0
 37 25 45 30 55 31 c 2
 67 32 l 2
 105 35 100 88 101 126 c 0xf4
 104 281 108 410 108 563 c 0
 108 583 101 601 80 605 c 2
 59 608 l 2
 48 610 44 616 44 626 c 0
 44 637 57 641 68 641 c 0
 78 641 124 638 149 638 c 0
 186 638 220 641 244 641 c 0
 256 641 259 633 259 626 c 0
 259 616 249 613 240 611 c 0
 214 606 190 598 189 566 c 0
 187 487 184 422 184 357 c 0xec
 184 340 187 338 202 338 c 2
 576 338 l 2
 597 338 600 341 600 366 c 2
 603 555 l 2
 603 585 587 606 545 608 c 0
 534 609 530 616 530 626 c 0
 530 640 543 641 554 641 c 0
 564 641 614 638 639 638 c 0
 655 638 697 641 721 641 c 0
 733 641 736 633 736 626 c 0
 736 615 726 612 710 607 c 0
 692 601 681 589 680 566 c 0
 676 388 675 261 675 95 c 0
 675 59 677 34 715 28 c 0
 727 26 731 21 731 13 c 0
 731 3 726 -3 717 -3 c 0
 703 -3 671 0 634 0 c 0
 595 0 550 -3 536 -3 c 0
 525 -3 520 2 520 12 c 0
 520 25 527 27 536 29 c 0
 549 32 559 33 567 38 c 0
 592 54 591 88 593 126 c 0
 596 178 597 225 597 270 c 0
 597 293 595 294 570 294 c 2
 202 294 l 2
 184 294 183 292 183 273 c 2
 183 104 l 2
 183 70 183 38 220 34 c 2
 238 32 l 2xf4
EndSplineSet
EndChar

StartChar: I
Encoding: 73 73 34
Width: 303
VWidth: 0
Flags: W
HStem: -3 32<42.0267 70 220 252.996> 608 33<44.0476 80 226 258.919>
VStem: 42 141<7 330.875> 108 75<36.9016 596.822>
LayerCount: 3
Fore
SplineSet
238 28 m 2xe0
 250 27 253 21 253 13 c 0
 253 3 248 -3 239 -3 c 0
 225 -3 186 0 149 0 c 0
 110 0 71 -3 57 -3 c 0
 46 -3 42 2 42 12 c 0xe0
 42 25 50 28 58 29 c 2
 70 30 l 2
 108 33 102 90 104 128 c 0
 108 211 108 278 108 350 c 2
 108 563 l 2xd0
 108 583 101 601 80 605 c 2
 59 608 l 2
 48 610 44 616 44 626 c 0
 44 637 57 641 68 641 c 0
 78 641 124 638 149 638 c 0
 186 638 220 641 244 641 c 0
 256 641 259 633 259 626 c 0
 259 616 252 608 243 607 c 2
 226 605 l 2
 207 603 189 589 188 566 c 0
 184 389 183 277 183 104 c 0
 183 70 183 34 220 30 c 2
 238 28 l 2xe0
EndSplineSet
EndChar

StartChar: J
Encoding: 74 74 35
Width: 308
VWidth: 0
Flags: W
HStem: 607 34<46.0348 86 242 272.907>
VStem: 122 82<-41.395 598.598>
LayerCount: 3
Fore
SplineSet
122 563 m 0
 122 583 116 601 86 604 c 2
 60 607 l 2
 49 608 46 615 46 625 c 0
 46 636 58 641 69 641 c 0
 79 641 137 638 162 638 c 0
 199 638 233 641 257 641 c 0
 269 641 273 633 273 626 c 0
 273 616 268 609 256 607 c 2
 242 605 l 2
 223 603 204.666621073 585.996101764 204 529 c 0
 202 358 199 243 199 84 c 0
 199 40 198 -1 185 -37 c 0
 151 -131 62 -210 35 -211 c 0
 26 -211 18 -203 18 -193 c 0
 18 -186 29 -178 40 -167 c 0
 97 -113 116 -77 118 56 c 0
 121 231 122 389 122 563 c 0
EndSplineSet
EndChar

StartChar: L
Encoding: 76 76 37
Width: 539
VWidth: 0
Flags: W
HStem: -8 21G<472 491> -3 36<46.1805 96.8831 205.42 452.868> 612 33<49.0476 98.526 194.675 255.863>
VStem: 104 79<51.376 602.802>
LayerCount: 3
Fore
SplineSet
149 0 m 2xb0
 110 0 76 -3 62 -3 c 0
 53 -3 46 2 46 12 c 0
 46 27 56 30 70 33 c 0x70
 104 41 104 66 104 97 c 0
 104 261 105 401 105 567 c 0
 105 598 94 606 64 612 c 0
 53 614 49 620 49 630 c 0
 49 641 62 645 73 645 c 0
 83 645 124 642 149 642 c 0
 186 642 217 645 241 645 c 0
 253 645 256 637 256 630 c 0
 256 620 244 614 235 612 c 0
 209 607 185 600 185 570 c 0
 183 393 183 282 183 109 c 0
 183 49 213 39 262 36 c 0
 288 34 322 34 355 34 c 0
 379 34 401 36 420 39 c 0
 460 45 480 72 490 90 c 0
 495 97 499 103 505 103 c 0
 519 102 520 95 520 90 c 0
 520 79 504 28 498 0 c 0
 496 -7 493 -8 489 -8 c 0
 455 -8 442 0 286 0 c 2
 149 0 l 2xb0
EndSplineSet
EndChar

StartChar: zero
Encoding: 48 48 52
Width: 442
VWidth: 0
Flags: W
HStem: -11 30<159.009 273.086> 341 33<160.31 280.705>
VStem: 23 68<87.8282 270.195> 348 70<89.6505 267.538>
LayerCount: 3
Fore
SplineSet
231 374 m 0
 330 374 418 285 418 181 c 0
 418 67 332 -11 215 -11 c 0
 104 -11 23 71 23 172 c 0
 23 308 122 374 231 374 c 0
348 177 m 0
 348 272 301 341 222 341 c 0
 128 341 91 257 91 175 c 0
 91 94 132 19 214 19 c 0
 299 19 348 91 348 177 c 0
EndSplineSet
EndChar

StartChar: one
Encoding: 49 49 53
Width: 306
VWidth: 0
Flags: W
HStem: -2 30<72.0291 107 228 259.971> 332 30<68.0589 101 219 261.941>
VStem: 132 68<32.644 326.215>
LayerCount: 3
Fore
SplineSet
130 284 m 0
 130 313 127 324 101 329 c 2
 85 332 l 2
 74 334 68 340 68 348 c 0
 68 361 77 362 91 362 c 0
 106 362 143 360 164 360 c 0
 185 360 225 362 241 362 c 0
 253 362 262 360 262 348 c 0
 262 337 247 335 238 334 c 2
 219 331 l 2
 200 328 198 304 198 278 c 0
 198 203 199 94 200 76 c 0
 202 47 202 36 228 31 c 2
 245 28 l 2
 256 26 260 20 260 12 c 0
 260 -1 250 -2 237 -2 c 0
 222 -2 186 0 165 0 c 0
 144 0 110 -2 94 -2 c 0
 82 -2 72 0 72 12 c 0
 72 23 77 27 88 28 c 2
 107 30 l 2
 123 32 132 53 132 79 c 0
 131 169 131 204 130 284 c 0
EndSplineSet
EndChar

StartChar: two
Encoding: 50 50 54
Width: 368
VWidth: 0
Flags: W
HStem: 0 48<118 319.03> 326 43<103.904 218.042>
VStem: 238 71<202.138 306.939> 333 20<75.3316 107.574>
LayerCount: 3
Fore
SplineSet
309 263 m 0
 309 191 217 132 130 64 c 0
 117 54 104 48 118 48 c 2
 181 48 l 2
 207 48 240 49 262 51 c 0
 303 55 320 62 333 91 c 0
 337 100 338 109 347 108 c 0
 351 107 353 104 353 101 c 0
 353 95 342 38 336 9 c 0
 334 1 329 0 322 0 c 2
 44 0 l 2
 37 0 34 3 34 7 c 0
 34 17 43 23 48 27 c 0
 90 56 125 89 155 116 c 0
 206 162 238 202 238 257 c 0
 238 298 205 326 170 326 c 0
 114 326 78 300 42 256 c 0
 37 249 22 260 22 266 c 0
 22 279 90 369 180 369 c 0
 255 369 309 334 309 263 c 0
EndSplineSet
EndChar

StartChar: three
Encoding: 51 51 55
Width: 406
VWidth: 0
Flags: W
HStem: -295 35<70.7516 188.797> 67 21<126.121 157.762> 330 39<106.617 227.195>
VStem: 257 62<185.023 301.988> 287 66<-149.011 9.66043>
LayerCount: 3
Fore
SplineSet
194 369 m 0xf0
 259 369 319 335 319 257 c 0xf0
 319 197 272 146 245 125 c 0
 237 119 232 116 232 113 c 0
 232 110 237 107 248 101 c 0
 288 79 353 38 353 -47 c 0
 353 -221 200 -295 116 -295 c 0
 108 -295 72 -294 46 -287 c 0
 28 -282 19 -273 19 -262 c 0
 19 -248 30 -235 46 -235 c 0
 65 -235 92 -260 126 -260 c 0
 216 -260 287 -167 287 -64 c 0xe8
 287 6 248 57 132 67 c 0
 122 68 124 85 132 88 c 0
 215 114 257 163 257 241 c 0
 257 285 229 330 174 330 c 0
 135 330 102 309 85 298 c 0
 80 295 73 292 67 292 c 0
 61 292 55 296 55 306 c 0
 55 316 67 323 73 328 c 0
 105 354 143 369 194 369 c 0xf0
EndSplineSet
EndChar

StartChar: four
Encoding: 52 52 56
Width: 478
VWidth: 0
Flags: W
HStem: 0 44<85.0044 312.998 367.054 452> 363 20G<326.5 357.5>
VStem: 29 56<14.5 55.7583> 313 54<-278 -1.89999e-11 45.1053 303.993>
DStem2: 48 54 98 67 0.638927 0.769268<19.9416 355.632>
LayerCount: 3
Fore
SplineSet
347 383 m 2
 368 383 371 379 371 363 c 2
 366 58 l 2
 366 46 367 45 379 45 c 0
 389 45 435 47 441 47 c 0
 448 47 452 44 452 36 c 2
 452 9 l 2
 452 4 451 0 445 0 c 2
 386 0 l 2
 367 0 367 0 367 -19 c 2
 367 -248 l 2
 367 -272 364 -278 345 -278 c 2
 330 -278 l 2
 313 -278 308 -277 308 -256 c 0
 308 -175 313 -41 313 -13 c 0
 313 0 311 0 295 0 c 2
 55 0 l 2
 32 0 29 8 29 21 c 0
 29 35 39 43 48 54 c 2
 298 355 l 2
 309 369 320 383 333 383 c 2
 347 383 l 2
271 273 m 2
 98 67 l 2
 91 58 85 53 85 49 c 0
 85 45 91 44 110 44 c 2
 293 44 l 2
 312 44 313 46 313 63 c 2
 313 271 l 2
 313 295 310 304 304 304 c 0
 296 304 284 289 271 273 c 2
EndSplineSet
EndChar

StartChar: five
Encoding: 53 53 57
Width: 488
VWidth: 0
Flags: W
HStem: -307 38<57.0332 163.029> 79 67<128.424 288.537> 299 61<155.609 388.794> 366 20G<396 404.5>
VStem: 358 67<-131.837 14.9827>
DStem2: 101 105 139 160 0.117093 0.993121<46.0598 200.761>
LayerCount: 3
Fore
SplineSet
399 386 m 0
 410 386 407 371 404 363 c 0
 399 350 391 326 387 316 c 0
 381 299 378 299 355 299 c 2
 179 299 l 2
 155 299 158 293 155 273 c 2
 139 160 l 2
 137 144 134 143 151 144 c 0
 165 145 179 146 192 146 c 0
 332 146 425 81 425 -55 c 0
 425 -220 207 -307 74 -307 c 0
 62 -307 57 -298 57 -289 c 0
 57 -280 62 -270 71 -269 c 0
 184 -259 358 -191 358 -57 c 0
 358 11 316 79 182 79 c 0
 159 79 134 75 116 75 c 0
 103 75 100 85 100 94 c 0
 100 98 101 102 101 105 c 2
 128 334 l 2
 131 358 133 360 153 360 c 2
 360 360 l 2
 371 360 374 361 382 373 c 0
 385 378 393 386 399 386 c 0
EndSplineSet
EndChar

StartChar: six
Encoding: 54 54 58
Width: 516
VWidth: 0
Flags: W
HStem: -12 30<200.829 305.964> 338 26<215.905 315.886> 633 37<383.913 463.856>
VStem: 64 71<113.649 320.46> 382 65<95.0686 276.554>
LayerCount: 3
Fore
SplineSet
447 190 m 0
 447 74 365 -12 259 -12 c 0
 106 -12 64 125 64 256 c 0
 64 446 240 660 452 670 c 0
 460 670 464 659 464 648 c 0
 464 639 461 634 454 633 c 0
 372 622 312 588 266 545 c 0
 200 483 163 402 148 343 c 0
 146 332 143 323 143 318 c 0
 143 315 144 314 146 314 c 0
 148 314 152 317 160 322 c 0
 186 341 231 364 280 364 c 0
 366 364 447 313 447 190 c 0
268 338 m 0
 188 338 135 265 135 183 c 0
 135 105 174 18 252 18 c 0
 330 18 382 96 382 176 c 0
 382 258 346 338 268 338 c 0
EndSplineSet
EndChar

StartChar: seven
Encoding: 55 55 59
Width: 503
VWidth: 0
Flags: W
HStem: 292 61<104.645 378.998>
LayerCount: 3
Fore
SplineSet
260 353 m 0
 324 353 353 354 419 355 c 0
 426 355 428 349 428 342 c 0
 428 335 425 327 424 323 c 0
 393 235 228 -97 176 -294 c 0
 174 -302 169 -309 160 -309 c 2
 96 -309 l 2
 89 -309 87 -304 87 -298 c 0
 87 -293 89 -287 91 -282 c 0
 248 38 266 74 374 270 c 0
 377 275 379 281 379 285 c 0
 379 289 376 289 366 290 c 0
 332 292 310 292 281 292 c 2
 188 292 l 2
 119 292 113 287 86 244 c 0
 83 241 81 237 74 237 c 2
 69 237 l 2
 59 237 58 244 58 250 c 0
 58 255 60 259 61 262 c 2
 105 349 l 2
 108 354 111 356 118 356 c 0
 131 356 168 353 260 353 c 0
EndSplineSet
EndChar

StartChar: eight
Encoding: 56 56 60
Width: 460
VWidth: 0
Flags: W
HStem: -13 34<157.116 288.25> 334 59<219.082 238.928> 640 30<180.429 300.505>
VStem: 40 58<71.6451 232.863> 67 67<477.02 594.475> 344 55<471.007 606.482> 350 60<77.7844 224.502>
LayerCount: 3
Fore
SplineSet
240 670 m 0xe8
 324 670 399 622 399 545 c 0xec
 399 458 333 419 284 382 c 0
 276 376 269 376 288 361 c 0
 328 331 410 271 410 164 c 0
 410 62 341 -13 222 -13 c 0
 108 -13 40 58 40 151 c 0xf2
 40 242 112 300 157 330 c 0
 175 342 183 346 183 350 c 0
 183 354 176 358 163 369 c 0
 128 399 67 460 67 518 c 0
 67 618 155 670 240 670 c 0xe8
273 411 m 0
 301 436 344 485 344 546 c 0
 344 598 308 640 240 640 c 0
 170 640 134 597 134 540 c 0
 134 478 190 438 224 411 c 0
 239 399 245 393 250 393 c 0
 255 393 260 399 273 411 c 0
184 317 m 0
 152 291 98 236 98 156 c 0
 98 61 155 21 222 21 c 0
 311 21 350 90 350 164 c 0xf2
 350 228 271 291 231 319 c 0
 216 329 212 334 208 334 c 0
 204 334 199 329 184 317 c 0
EndSplineSet
EndChar

StartChar: nine
Encoding: 57 57 61
Width: 492
VWidth: 0
Flags: W
HStem: -306 36<42.0354 125.455> -11 28<181.897 283.482> 339 31<191.167 303.644>
VStem: 50 71<76.4732 264.315> 364 68<-15.6027 253.107>
LayerCount: 3
Fore
SplineSet
250 370 m 0
 372 370 432 250 432 147 c 0
 432 -145 259 -294 54 -306 c 0
 46 -306 42 -301 42 -286 c 0
 42 -278 45 -271 52 -270 c 0
 161 -260 252 -190 308 -99 c 0
 335 -54 351 -6 361 25 c 0
 364 33 366 41 366 45 c 0
 366 47 366 48 364 48 c 0
 362 48 358 46 353 42 c 0
 322 16 270 -11 215 -11 c 0
 107 -11 50 76 50 173 c 0
 50 285 131 370 250 370 c 0
364 182 m 0
 364 259 330 339 251 339 c 0
 162 339 121 259 121 178 c 0
 121 100 148 17 233 17 c 0
 326 17 364 102 364 182 c 0
EndSplineSet
EndChar

StartChar: .notdef
Encoding: 65536 -1 63
Width: 500
Flags: W
HStem: 0 50<100 400> 483 50<100 400>
VStem: 50 50<50 483> 400 50<50 483>
LayerCount: 3
Fore
SplineSet
50 0 m 1
 50 533 l 1
 450 533 l 1
 450 0 l 1
 50 0 l 1
100 50 m 1
 400 50 l 1
 400 483 l 1
 100 483 l 1
 100 50 l 1
EndSplineSet
EndChar

StartChar: period
Encoding: 46 46 64
Width: 254
VWidth: 0
Flags: W
HStem: -9 94<88.2793 165.721>
VStem: 80 94<-0.720703 76.7207>
LayerCount: 3
Fore
SplineSet
80 38 m 0
 80 63 102 85 127 85 c 0
 152 85 174 63 174 38 c 0
 174 13 152 -9 127 -9 c 0
 102 -9 80 13 80 38 c 0
EndSplineSet
EndChar

StartChar: colon
Encoding: 58 58 65
Width: 254
VWidth: 0
Flags: W
HStem: -9 94<88.2793 165.721> 266 94<88.2793 165.721>
VStem: 80 94<-0.720703 76.7207 274.279 351.721>
LayerCount: 3
Fore
SplineSet
80 313 m 0
 80 338 102 360 127 360 c 0
 152 360 174 338 174 313 c 0
 174 288 152 266 127 266 c 0
 102 266 80 288 80 313 c 0
80 38 m 0
 80 63 102 85 127 85 c 0
 152 85 174 63 174 38 c 0
 174 13 152 -9 127 -9 c 0
 102 -9 80 13 80 38 c 0
EndSplineSet
EndChar

StartChar: comma
Encoding: 44 44 66
Width: 242
VWidth: 0
Flags: W
HStem: -127 223<80 92>
VStem: 118 56<-64.3049 32.0506>
LayerCount: 3
Fore
SplineSet
106 96 m 0
 146 96 174 54 174 9 c 0
 174 -53 129 -98 108 -115 c 0
 101 -121 92 -127 84 -127 c 0
 77 -127 65 -119 65 -111 c 0
 65 -107 67 -103 72 -98 c 0
 87 -84 118 -62 118 -21 c 0
 118 19 60 9 60 55 c 0
 60 78 80 96 106 96 c 0
EndSplineSet
EndChar

StartChar: semicolon
Encoding: 59 59 67
Width: 242
VWidth: 0
Flags: W
HStem: 266 94<76.2793 153.721>
VStem: 70 96<19.46 77.7686 277.042 348.958> 124 42<-55.5907 40>
LayerCount: 3
Fore
SplineSet
83 -114 m 0xc0
 74 -114 70 -106 70 -101 c 0xc0
 70 -91 86 -82 95 -72 c 0
 109 -58 124 -36 124 -12 c 0xa0
 124 15 64 17 64 58 c 0
 64 81 85 96 106 96 c 0
 140 96 166 59 166 21 c 0
 166 -43 129 -83 106 -101 c 0
 99 -107 93 -114 83 -114 c 0xc0
68 313 m 0
 68 338 90 360 115 360 c 0
 140 360 162 338 162 313 c 0
 162 288 140 266 115 266 c 0
 90 266 68 288 68 313 c 0
EndSplineSet
EndChar

StartChar: hyphen
Encoding: 45 45 68
Width: 332
VWidth: 0
Flags: W
HStem: 133 93
VStem: 44 244<164 196>
DStem2: 271 225 62 134 0.990142 0.140069<-227.609 6.97813>
LayerCount: 3
Fore
SplineSet
66 196 m 2
 271 225 l 2
 274 225 276 226 278 226 c 0
 286 226 288 222 288 215 c 2
 288 176 l 2
 288 166 276 165 266 164 c 2
 62 134 l 2
 59 133 57 133 54 133 c 0
 49 133 44 135 44 143 c 2
 44 181 l 2
 44 193 57 195 66 196 c 2
EndSplineSet
EndChar

StartChar: exclam
Encoding: 33 33 69
Width: 254
VWidth: 0
Flags: W
HStem: -9 94<88.2793 165.721> 646 20G<112 150.5>
VStem: 80 94<-0.720703 76.7207> 88 87<336.323 659.762> 113 40<127.004 345.63>
LayerCount: 3
Fore
SplineSet
130 666 m 0xd0
 171 666 175 626 175 587 c 0xd0
 175 568 157 395 153 146 c 0
 152.791191599 133.001677068 143 127 133 127 c 0
 123 127 113.338610593 132.004095497 113 146 c 0xc8
 110 270 88 556 88 582 c 0
 88 636 94 666 130 666 c 0xd0
80 38 m 0xe0
 80 63 102 85 127 85 c 0
 152 85 174 63 174 38 c 0
 174 13 152 -9 127 -9 c 0
 102 -9 80 13 80 38 c 0xe0
EndSplineSet
EndChar

StartChar: question
Encoding: 63 63 70
Width: 354
VWidth: 0
Flags: W
HStem: -9 94<88.2793 165.721> 600 61<97.1713 204.627>
VStem: 80 94<-0.720703 76.7207> 102 38<128.032 293.296> 279 31<411.726 523.827>
LayerCount: 3
Fore
SplineSet
102 138 m 2xd8
 102 342 l 2
 102 353 109 360 120 360 c 0
 134 360 144 356 160 356 c 0
 224 356 279 402 279 466 c 0
 279 543 215 590 130 600 c 0
 112 602 95 609 95 628 c 0
 95 647 111 661 131 661 c 0
 212 661 310 577 310 472 c 0
 310 383 270 300 164 294 c 0
 153 293 140 289 140 278 c 2
 140 139 l 2
 140 130 130 128 119 128 c 0
 111 128 102 129 102 138 c 2xd8
80 38 m 0xe8
 80 63 102 85 127 85 c 0
 152 85 174 63 174 38 c 0
 174 13 152 -9 127 -9 c 0
 102 -9 80 13 80 38 c 0xe8
EndSplineSet
EndChar

StartChar: parenleft
Encoding: 40 40 71
Width: 372
VWidth: 0
Flags: W
VStem: 58 63<14.5173 317.353>
LayerCount: 3
Fore
SplineSet
323 658 m 0
 329 658 330 650 330 640 c 2
 330 624 l 2
 330 616 329 614 325 610 c 0
 251 548 121 392 121 180 c 0
 121 -8 185 -149 326 -255 c 0
 330 -258 330 -262 330 -268 c 2
 330 -292 l 2
 330 -301 329 -307 324 -307 c 0
 302 -307 58 -147 58 168 c 0
 58 476 315 658 323 658 c 0
EndSplineSet
EndChar

StartChar: parenright
Encoding: 41 41 72
Width: 372
VWidth: 0
Flags: W
VStem: 267 63<14.5173 317.353>
LayerCount: 3
Fore
SplineSet
65 658 m 0
 73 658 330 476 330 168 c 0
 330 -147 86 -307 64 -307 c 0
 59 -307 58 -301 58 -292 c 2
 58 -268 l 2
 58 -262 58 -258 62 -255 c 0
 203 -149 267 -8 267 180 c 0
 267 392 137 548 63 610 c 0
 59 614 58 616 58 624 c 2
 58 640 l 2
 58 650 59 658 65 658 c 0
EndSplineSet
EndChar

StartChar: asterisk
Encoding: 42 42 73
Width: 472
VWidth: 0
Flags: W
HStem: 370 57<45.0688 122.474 346.865 422.758> 499 59<47.709 126.366 349.445 423.611>
VStem: 139 60<272.972 350.077 583.275 653.588> 274 58<272.94 343.817 576.031 653.09>
LayerCount: 3
Fore
SplineSet
303 654 m 0
 319 654 332 642 332 624 c 0
 332 605 286 537 275 517 c 0
 271 509 268 502 268 497 c 0
 268 492 271 488 276 488 c 0
 279 488 284 490 290 494 c 0
 310 507 344 537 373 551 c 0
 382 555 391 558 399 558 c 0
 414 558 425 550 425 528 c 0
 425 509 400 504 384 499 c 0
 367 494 277 474 277 460 c 0
 277 455 282 453 294 450 c 0
 336 438 360 435 390 427 c 0
 406 423 424 418 424 397 c 0
 424 382 414 370 401 370 c 0
 374 370 300 421 278 432 c 0
 272 435 267 436 264 436 c 0
 260 436 258 434 258 430 c 0
 258 426 260 421 264 415 c 0
 278 394 304 355 320 328 c 0
 326 318 332 307 332 297 c 0
 332 283 322 272 300 272 c 0
 289 272 277 280 274 290 c 0
 257 338 254 376 243 408 c 0
 240 418 237 423 233 423 c 0
 229 423 224 417 222 406 c 0
 213 366 208 335 199 301 c 0
 194 283 191 272 167 272 c 0
 150 272 139 286 139 300 c 0
 139 325 186 387 197 414 c 0
 200 421 203 429 203 435 c 0
 203 438 202 441 199 441 c 0
 196 441 192 439 185 434 c 0
 162 418 119 387 92 373 c 0
 84 369 75 367 68 367 c 0
 54 367 43 375 43 394 c 0
 43 415 61 425 78 428 c 0
 110 434 143 445 170 453 c 0
 184 457 194 463 194 468 c 0
 194 477 187 477 172 480 c 0
 139 487 118 489 89 497 c 0
 71 502 46 507 46 530 c 0
 46 544 55 560 71 560 c 0
 100 560 163 511 184 500 c 0
 190 497 196 495 201 495 c 0
 207 495 210 498 210 503 c 0
 210 506 209 510 206 515 c 0
 188 549 139 605 139 626 c 0
 139 642 151 655 168 655 c 0
 198 655 199 623 204 604 c 0
 211 577 217 554 225 532 c 0
 231 517 233 508 239 508 c 0
 244 508 250 516 253 532 c 0
 261 570 267 598 277 633 c 0
 281 645 287 654 303 654 c 0
EndSplineSet
EndChar

StartChar: dagger
Encoding: 8224 8224 74
Width: 560
VWidth: 0
Flags: W
HStem: 324 85<59.3722 107.875 149.366 157.903 408.131 417.55 458.345 508.061> 324 50<103.025 157.643> 368 12<206 245 323 329>
VStem: 238 83<54.5883 327.256 579.034 648.711> 239 90<400.491 558.546> 253 55<-146 77.8977 298.286 358.38 385.062 482.463> 262 40<526.342 607.077>
LayerCount: 3
Fore
SplineSet
438 375 m 0x24
 460 375 460 405 487 405 c 0
 507 405 515 386 515 371 c 0
 515 342 491 320 466 320 c 0
 405 320 409 368 366 368 c 0
 323 368 304 335 304 328 c 0
 304 312 321 304 321 297 c 0x30
 321 281 311 31 302 -140 c 0x22
 302 -146 295 -146 289 -146 c 2
 265 -146 l 2
 258 -146 250 -145 250 -138 c 0
 249 41 238 272 238 298 c 0
 238 304 255 316 255 329 c 0
 255 352 223 366 206 366 c 0
 162 366 151 324 108 324 c 0x50
 73 324 48 347 48 378 c 16
 48 397 62 409 79 409 c 0x90
 108 409 106 374 123 374 c 0
 149 374 156 408 192 408 c 0
 210 408 233 385 245 385 c 0
 251 385 253 392 253 399 c 0x44
 253 431 239 451 239 484 c 0x48
 239 532 262 559 262 572 c 0
 262 582 242 600 242 620 c 0
 242 642 263 655 283 655 c 0
 304 655 323 641 323 615 c 0
 323 596 302 578 302 573 c 0x42
 302 563 329 526 329 490 c 0x48
 329 448 308 428 308 389 c 0
 308 383 308 380 313 380 c 0
 329 380 361 406 385 406 c 0
 409 406 422 375 438 375 c 0x24
EndSplineSet
EndChar

StartChar: daggerdbl
Encoding: 8225 8225 75
Width: 493
VWidth: 0
Flags: W
HStem: 11 61<54.2462 123.674 348.326 417.754> 26 8<124 187> 448 61<54.2462 123.674 348.326 417.754> 486 8<285 348>
VStem: 207 58<-139.781 -62.5236 34.0022 231.015 582.524 659.781> 220 35<-111.2 -1.79691 521.797 621.977> 225 21<173.941 242.921 277.012 340.977>
LayerCount: 3
Fore
SplineSet
205 68 m 0x48
 208 127 213 170 225 234 c 0
 226 240 231 243 237 243 c 0
 243 243 245 239 246 234 c 0x42
 258 170 263 127 267 68 c 0
 267 62 265 52 265 49 c 0
 265 35 269 34 281 34 c 0x48
 312 34 337 53 362 66 c 0
 371 70 380 72 388 72 c 0
 409 72 419 57 419 42 c 0
 419 27 409 11 389 11 c 0x88
 380 11 370 14 363 19 c 0
 359 22 355 26 348 26 c 0
 341 26 302 11 282 6 c 0
 273 4 270 3 268 -4 c 0
 261 -25 255 -40 255 -60 c 0
 255 -83 271 -92 271 -114 c 0
 271 -131 256 -141 238 -141 c 0
 221 -141 206 -129 206 -112 c 0
 206 -95 220 -73 220 -62 c 0
 220 -35 212 -18 205 -1 c 0
 202 5 199 4 190 6 c 0
 170 11 131 26 124 26 c 0x44
 117 26 113 23 109 20 c 0
 102 15 92 11 83 11 c 0
 63 11 53 27 53 42 c 0
 53 57 63 72 84 72 c 0x84
 92 72 101 70 110 66 c 0
 133 54 154 34 187 34 c 0
 204 34 207 37 207 47 c 0
 207 53 205 62 205 68 c 0x48
267 452 m 0
 264 393 259 350 247 286 c 0
 246 281 241 277 235 277 c 0
 229 277 227 281 226 286 c 0
 214 350 209 393 205 452 c 1
 207 471 l 2
 209 485 203 486 191 486 c 0x18
 160 486 135 467 110 454 c 0
 101 450 92 448 84 448 c 0
 63 448 53 463 53 478 c 0
 53 493 63 509 83 509 c 0x28
 92 509 102 505 109 500 c 0
 113 497 117 494 124 494 c 0
 131 494 170 509 190 514 c 0
 199 516 202 517 204 524 c 0
 211 545 217 560 217 580 c 0
 217 603 201 612 201 634 c 0
 201 651 216 661 234 661 c 0
 251 661 265 649 265 632 c 0
 265 615 252 593 252 582 c 0
 252 555 260 538 267 521 c 0
 270 515 273 516 282 514 c 0
 302 509 341 494 348 494 c 0x18
 355 494 359 497 363 500 c 0
 370 505 380 509 389 509 c 0
 409 509 419 493 419 478 c 0
 419 463 409 448 388 448 c 0x28
 380 448 371 450 362 454 c 0
 339 466 318 486 285 486 c 0
 268 486 265 483 265 473 c 0x18
 265 467 267 458 267 452 c 0
EndSplineSet
Layer: 2
SplineSet
245 234 m 4x42
 257 170 262 127 266 68 c 4
 266 64 264 57 264 49 c 4
 264 34 269 33 281 33 c 4x48
 312 33 337 52 362 65 c 4
 371 69 380 71 388 71 c 4
 408 71 418 57 418 42 c 4
 418 27 408 12 389 12 c 4x88
 380 12 371 15 364 20 c 4
 360 23 355 27 348 27 c 4
 340 27 302 12 282 7 c 4
 273 5 269 3 267 -4 c 4
 260 -25 254 -40 254 -60 c 4x44
 254 -84 270 -93 270 -114 c 4
 270 -130 256 -140 238 -140 c 4
 221 -140 208 -128 208 -112 c 4x48
 208 -95 221 -74 221 -62 c 4
 221 -35 213 -18 206 -1 c 4
 203 5 199 5 190 7 c 4
 170 12 132 27 124 27 c 4x44
 117 27 112 24 108 21 c 4
 101 16 92 12 83 12 c 4
 64 12 54 27 54 42 c 4
 54 57 64 71 84 71 c 4x84
 92 71 101 69 110 65 c 4
 133 53 154 33 187 33 c 4
 204 33 208 36 208 47 c 4x48
 208 53 206 62 206 68 c 4
 209 127 214 170 226 234 c 4
 227 239 231 242 237 242 c 4
 242 242 244 239 245 234 c 4x42
227 286 m 4
 215 350 210 393 206 452 c 4
 206 456 208 463 208 471 c 4
 208 486 203 487 191 487 c 4x18
 160 487 135 468 110 455 c 4
 101 451 92 449 84 449 c 4
 64 449 54 463 54 478 c 4
 54 493 64 508 83 508 c 4x28
 92 508 101 504 108 499 c 4
 112 496 117 493 124 493 c 4
 132 493 170 508 190 513 c 4
 199 515 203 517 205 524 c 4
 212 545 218 560 218 580 c 4
 218 604 202 613 202 634 c 4
 202 650 216 660 234 660 c 4
 251 660 264 648 264 632 c 4
 264 615 251 594 251 582 c 4
 251 555 259 538 266 521 c 4
 269 515 273 515 282 513 c 4
 302 508 340 493 348 493 c 4x18
 355 493 360 496 364 499 c 4
 371 504 380 508 389 508 c 4
 408 508 418 493 418 478 c 4
 418 463 408 449 388 449 c 4x28
 380 449 371 451 362 455 c 4
 339 467 318 487 285 487 c 4x18
 268 487 264 484 264 473 c 4
 264 467 266 458 266 452 c 4
 263 393 258 350 246 286 c 4
 245 281 241 278 235 278 c 4
 230 278 228 281 227 286 c 4
EndSplineSet
EndChar

StartChar: paragraph
Encoding: 182 182 76
Width: 578
VWidth: 0
Flags: W
HStem: -299 21G<298.5 317 442.5 455> 625 33<337.952 436.572 474.384 537.998>
VStem: 43 291<303.174 499.793> 281 51<-298.937 -69.1202> 297 37<-69.1202 143.999> 422 50<-298.422 -62.9679> 439 35<224.339 623.661>
LayerCount: 3
Fore
SplineSet
474 595 m 2xe2
 474 414 l 2xe2
 474 254 472 -255 472 -280 c 0
 472 -297 461 -299 449 -299 c 24
 436 -298 422 -295 422 -278 c 0xc4
 422 -253 439 306 439 414 c 2
 439 589 l 2
 439 621 427 625 409 625 c 2
 370 625 l 2
 347 625 334 622 334 589 c 2xca
 334 414 l 2xe0
 334 254 332 -255 332 -280 c 0
 332 -297 327 -299 307 -299 c 0
 290 -299 281 -297 281 -280 c 0xd0
 281 -247 295 -12 297 131 c 0xc8
 297 139 297 142 281 144 c 0xd0
 224 152 43 212 43 405 c 0
 43 580 214 658 376 658 c 2
 519 658 l 2
 536 658 538 653 538 641 c 0
 538 628 536 625 519 625 c 2
 500 625 l 2
 475 625 474 620 474 595 c 2xe2
EndSplineSet
EndChar

StartChar: section
Encoding: 167 167 77
Width: 452
VWidth: 0
Flags: W
HStem: -146 29<153.574 262.964> -57 33<146.459 183.386> 625 31<165.035 256.245>
VStem: 66 34<306.314 399.951> 87 46<484.942 601.07> 90 53<-109.059 -61.1208> 261 68<563.392 620.758> 311 46<-80.3232 50.8805> 366 29<125.058 210.259>
DStem2: 182 449 153 405 0.724941 -0.688811<-6.8905 306.413>
LayerCount: 3
Fore
SplineSet
246 575 m 0xea80
 259 586 261 587 261 598 c 0
 261 613 239 625 219 625 c 0
 173 625 133 597 133 552 c 0xea80
 133 513 154 481 182 449 c 0
 227 399 293 354 340 301 c 0
 370 267 395 234 395 184 c 0
 395 124 364 95 345 83 c 0
 332 75 334 73 340 58 c 0
 348 41 357 15 357 -20 c 0
 357 -101 277 -146 204 -146 c 0
 151 -146 90 -126 90 -73 c 0
 90 -41 115 -24 148 -24 c 0
 162 -24 175 -30 186 -43 c 0
 190 -48 189 -56 182 -57 c 0
 169 -59 143 -63 143 -82 c 0xe580
 143 -109 179 -117 207 -117 c 0
 276 -117 311 -70 311 -14 c 0
 311 49 248 102 189 156 c 0
 129 211 66 263 66 342 c 0xf180
 66 391 86 417 105 432 c 0
 112 438 114 441 114 444 c 0
 114 448 111 453 106 463 c 0
 98 478 87 504 87 541 c 0
 87 615 153 656 220 656 c 0
 271 656 329 632 329 584 c 0
 329 561 305 545 284 545 c 0
 268 545 260 549 249 557 c 0
 244 561 241 571 246 575 c 0xea80
127 409 m 0
 115 401 100 385 100 352 c 0xf080
 100 314 138 275 171 244 c 0
 216 200 263 157 307 111 c 0
 313 105 316 102 320 102 c 0
 323 102 327 105 334 109 c 0
 346 115 366 135 366 168 c 0
 366 189 352 215 327 243 c 0
 295 280 249 320 211 352 c 0
 186 373 165 393 153 405 c 0
 147 411 144 415 140 415 c 0
 137 415 133 413 127 409 c 0
EndSplineSet
Layer: 2
SplineSet
262 598 m 4xea80
 262 614 239 626 219 626 c 4
 173 626 132 598 132 552 c 4xea80
 132 513 153 480 181 448 c 4
 226 398 292 353 339 300 c 4
 369 266 394 234 394 184 c 4
 394 124 363 97 344 84 c 4
 336 79 332 77 332 74 c 4
 332 71 335 67 339 58 c 4
 347 41 356 15 356 -20 c 4
 356 -100 277 -145 204 -145 c 4
 151 -145 91 -125 91 -73 c 4
 91 -42 115 -25 148 -25 c 4
 162 -25 174 -31 185 -44 c 4
 189 -49 188 -55 182 -56 c 4
 169 -58 142 -62 142 -82 c 4xe580
 142 -110 179 -118 207 -118 c 4
 277 -118 312 -70 312 -14 c 4
 312 50 249 103 190 157 c 4
 130 212 67 264 67 342 c 4xf180
 67 391 87 416 106 431 c 4
 114 438 118 440 118 443 c 4
 118 447 113 451 107 463 c 4
 99 478 88 504 88 541 c 4
 88 614 153 655 220 655 c 4
 271 655 328 631 328 584 c 4
 328 562 305 546 284 546 c 4
 268 546 261 550 250 558 c 4
 245 562 243 571 247 574 c 4
 260 585 262 587 262 598 c 4xea80
126 410 m 4
 114 402 99 385 99 352 c 4xf280
 99 313 137 274 170 243 c 4
 215.310196881 199.322603006 262 156 306 110 c 4
 313.347797516 102.318211688 315 99 318 99 c 4
 321 99 325 103 334 108 c 4
 346 114 367 135 367 168 c 4
 367 189 353 216 328 244 c 4
 296 281 250 321 212 353 c 4
 187 374 166 394 154 406 c 4
 148 412 146 416 141 416 c 4
 138 416 133 415 126 410 c 4
EndSplineSet
EndChar

StartChar: bracketleft
Encoding: 91 91 78
Width: 270
VWidth: 0
Flags: W
HStem: -210 22<110.23 241.946> 631 21<116.233 241> 633 26<116.191 248.996>
VStem: 59 57<-187.588 630.106>
LayerCount: 3
Fore
SplineSet
87 652 m 2xd0
 241 659 l 2
 246 659 249 656 249 646 c 0
 249 636 244 633 232 633 c 2xb0
 132 631 l 2
 117 631 116 630 116 612 c 2
 110 -166 l 2
 110 -188 110 -188 132 -188 c 2
 224 -188 l 2
 238 -188 242 -188 242 -201 c 0
 242 -210 239 -212 234 -212 c 2
 79 -210 l 2
 59 -210 55 -204 54 -184 c 0
 54 -176 59 -33 59 186 c 0
 59 282 60 380 60 476 c 0
 60 527 59 609 59 629 c 0
 59 653 66 651 87 652 c 2xd0
EndSplineSet
EndChar

StartChar: bracketright
Encoding: 93 93 79
Width: 270
VWidth: 0
Flags: W
HStem: -215 22<25.0545 152.717> 629 25<29.0174 158.963>
VStem: 153 56<-192.924 165.129> 159 57<409.226 630.906>
LayerCount: 3
Fore
SplineSet
197 653 m 0xd0
 213 653 216 650 216 629 c 0xd0
 214 422 208 151 208 -52 c 0
 208 -136 209 -187 209 -192 c 0
 208 -212 204 -213 184 -213 c 2
 33 -215 l 2
 28 -215 25 -215 25 -206 c 0
 25 -193 29 -193 43 -193 c 2
 131 -193 l 2
 153 -193 153 -191 153 -171 c 2xe0
 159 612 l 2
 159 630 158 631 143 631 c 2
 46 629 l 2
 34 629 29 631 29 641 c 0
 29 651 35 654 40 654 c 0
 92 653 144 653 197 653 c 0xd0
EndSplineSet
EndChar

StartChar: quoteright
Encoding: 8217 8217 80
Width: 206
VWidth: 0
Flags: W
HStem: 459 203<72 79>
VStem: 114 41<509.477 604.5>
LayerCount: 3
Fore
SplineSet
95 662 m 0
 134 662 155 626 155 583 c 0
 155 527 130 494 98 473 c 0
 91 469 79 459 69 459 c 0
 63 459 56 465 56 472 c 0
 56 483 76 492 86 500 c 0
 102 513 114 524 114 547 c 0
 114 567 103 578 87 585 c 0
 70 593 52 604 52 626 c 0
 52 649 72 662 95 662 c 0
EndSplineSet
EndChar

StartChar: quoteleft
Encoding: 8216 8216 81
Width: 206
VWidth: 0
Flags: W
HStem: 459 203<128 135>
VStem: 52 41<516.5 611.523>
LayerCount: 3
Fore
SplineSet
112 459 m 0
 73 459 52 495 52 538 c 0
 52 594 77 627 109 648 c 0
 116 652 128 662 138 662 c 0
 144 662 151 656 151 649 c 0
 151 638 131 629 121 621 c 0
 105 608 93 597 93 574 c 0
 93 554 104 543 120 536 c 0
 137 528 155 517 155 495 c 0
 155 472 135 459 112 459 c 0
EndSplineSet
EndChar

StartChar: quotedblleft
Encoding: 8220 8220 82
Width: 366
VWidth: 0
Flags: W
HStem: 459 203<128 135 278 285>
VStem: 52 41<516.5 611.523> 202 41<516.5 611.523>
LayerCount: 3
Fore
SplineSet
112 459 m 0
 73 459 52 495 52 538 c 0
 52 594 77 627 109 648 c 0
 116 652 128 662 138 662 c 0
 144 662 151 656 151 649 c 0
 151 638 131 629 121 621 c 0
 105 608 93 597 93 574 c 0
 93 554 104 543 120 536 c 0
 137 528 155 517 155 495 c 0
 155 472 135 459 112 459 c 0
262 459 m 0
 223 459 202 495 202 538 c 0
 202 594 227 627 259 648 c 0
 266 652 278 662 288 662 c 0
 294 662 301 656 301 649 c 0
 301 638 281 629 271 621 c 0
 255 608 243 597 243 574 c 0
 243 554 254 543 270 536 c 0
 287 528 305 517 305 495 c 0
 305 472 285 459 262 459 c 0
EndSplineSet
EndChar

StartChar: quotedblright
Encoding: 8221 8221 83
Width: 354
VWidth: 0
Flags: W
HStem: 459 203<72 79 222 229>
VStem: 114 41<509.477 604.5> 264 41<509.477 604.5>
LayerCount: 3
Fore
SplineSet
245 662 m 0
 284 662 305 626 305 583 c 0
 305 527 280 494 248 473 c 0
 241 469 229 459 219 459 c 0
 213 459 206 465 206 472 c 0
 206 483 226 492 236 500 c 0
 252 513 264 524 264 547 c 0
 264 567 253 578 237 585 c 0
 220 593 202 604 202 626 c 0
 202 649 222 662 245 662 c 0
95 662 m 0
 134 662 155 626 155 583 c 0
 155 527 130 494 98 473 c 0
 91 469 79 459 69 459 c 0
 63 459 56 465 56 472 c 0
 56 483 76 492 86 500 c 0
 102 513 114 524 114 547 c 0
 114 567 103 578 87 585 c 0
 70 593 52 604 52 626 c 0
 52 649 72 662 95 662 c 0
EndSplineSet
EndChar
